<svg width="61" height="28" viewBox="0 0 61 28" fill="none" xmlns="http://www.w3.org/2000/svg">
<path d="M13.94 27.36C12.14 27.36 10.688 27 9.584 26.28C8.48 25.56 7.676 24.444 7.172 22.932C6.692 21.42 6.452 19.488 6.452 17.136C6.452 14.808 6.716 12.9 7.244 11.412C7.772 9.9 8.588 8.784 9.692 8.064C10.82 7.32 12.236 6.948 13.94 6.948C15.668 6.948 17.252 7.356 18.692 8.172C20.132 8.988 21.284 10.164 22.148 11.7C23.012 13.212 23.444 15.024 23.444 17.136C23.444 19.248 23.012 21.072 22.148 22.608C21.284 24.12 20.132 25.296 18.692 26.136C17.252 26.952 15.668 27.36 13.94 27.36ZM0.8 27V0.287998H8.936V9.936L8.576 17.136L8.54 24.336V27H0.8ZM11.996 21.024C12.596 21.024 13.136 20.88 13.616 20.592C14.096 20.304 14.48 19.872 14.768 19.296C15.056 18.696 15.2 17.976 15.2 17.136C15.2 16.272 15.056 15.564 14.768 15.012C14.48 14.436 14.096 14.004 13.616 13.716C13.136 13.428 12.596 13.284 11.996 13.284C11.396 13.284 10.856 13.428 10.376 13.716C9.896 14.004 9.512 14.436 9.224 15.012C8.936 15.564 8.792 16.272 8.792 17.136C8.792 17.976 8.936 18.696 9.224 19.296C9.512 19.872 9.896 20.304 10.376 20.592C10.856 20.88 11.396 21.024 11.996 21.024ZM32.811 23.76L32.991 14.184L39.795 7.308H49.407L40.407 16.74L36.339 20.016L32.811 23.76ZM26.007 27V0.287998H34.143V27H26.007ZM40.227 27L34.827 20.16L39.831 14.004L50.055 27H40.227Z" fill="white"/>
<path d="M55.3431 27.36C53.9991 27.36 52.8711 26.928 51.9591 26.064C51.0471 25.176 50.5911 24.048 50.5911 22.68C50.5911 21.288 51.0471 20.172 51.9591 19.332C52.8711 18.492 53.9991 18.072 55.3431 18.072C56.6871 18.072 57.8151 18.492 58.7271 19.332C59.6391 20.172 60.0951 21.288 60.0951 22.68C60.0951 24.048 59.6391 25.176 58.7271 26.064C57.8151 26.928 56.6871 27.36 55.3431 27.36Z" fill="#EEE73E"/>
</svg>
